<svg xmlns="http://www.w3.org/2000/svg" xmlns:xlink="http://www.w3.org/1999/xlink" width="500" zoomAndPan="magnify" viewBox="0 0 375 374.999991" height="500" preserveAspectRatio="xMidYMid meet" version="1.0"><defs><clipPath id="47cb0726c2"><path d="M 92.558594 291.382812 L 205.351562 291.382812 L 205.351562 351.230469 L 92.558594 351.230469 Z M 92.558594 291.382812 " clip-rule="nonzero"/></clipPath><clipPath id="02d77a1b36"><path d="M 248.734375 160 L 282.273438 160 L 282.273438 191.9375 L 248.734375 191.9375 Z M 248.734375 160 " clip-rule="nonzero"/></clipPath><clipPath id="548934fa8b"><path d="M 248.734375 125.863281 L 282.273438 125.863281 L 282.273438 157.898438 L 248.734375 157.898438 Z M 248.734375 125.863281 " clip-rule="nonzero"/></clipPath><clipPath id="c044e36abe"><path d="M 120 23.746094 L 265 23.746094 L 265 143 L 120 143 Z M 120 23.746094 " clip-rule="nonzero"/></clipPath><clipPath id="9fae67c052"><path d="M 248.734375 91.15625 L 282.273438 91.15625 L 282.273438 123.859375 L 248.734375 123.859375 Z M 248.734375 91.15625 " clip-rule="nonzero"/></clipPath><clipPath id="7f1c28b4e4"><path d="M 248.734375 194 L 282.273438 194 L 282.273438 225.976562 L 248.734375 225.976562 Z M 248.734375 194 " clip-rule="nonzero"/></clipPath></defs><g clip-path="url(#47cb0726c2)"><path fill="#4b73ef" d="M 200.164062 322.199219 L 198.550781 321.664062 L 108.476562 291.964844 C 104.804688 290.753906 100.796875 292.742188 99.527344 296.398438 L 92.558594 316.523438 L 197.777344 351.230469 L 204.667969 331.285156 C 205.296875 329.480469 205.175781 327.535156 204.324219 325.800781 C 203.492188 324.125 201.972656 322.808594 200.164062 322.199219 " fill-opacity="1" fill-rule="nonzero"/></g><g clip-path="url(#02d77a1b36)"><path fill="#4b73ef" d="M 270.273438 160.050781 C 267.617188 160.050781 264.949219 160.914062 262.714844 162.691406 L 253.425781 170.097656 C 248.1875 174.273438 247.324219 181.929688 251.5 187.164062 C 255.675781 192.398438 263.324219 193.261719 268.566406 189.089844 L 277.855469 181.683594 C 283.089844 177.507812 283.957031 169.855469 279.78125 164.621094 C 277.386719 161.613281 273.84375 160.050781 270.273438 160.050781 " fill-opacity="1" fill-rule="nonzero"/></g><g clip-path="url(#548934fa8b)"><path fill="#4b73ef" d="M 270.273438 125.921875 C 267.617188 125.921875 264.949219 126.785156 262.714844 128.5625 L 253.425781 135.96875 C 248.1875 140.140625 247.324219 147.800781 251.5 153.035156 C 255.671875 158.265625 263.324219 159.132812 268.566406 154.960938 L 277.855469 147.554688 C 283.089844 143.382812 283.957031 135.726562 279.78125 130.488281 C 277.386719 127.484375 273.84375 125.921875 270.273438 125.921875 " fill-opacity="1" fill-rule="nonzero"/></g><path fill="#4b73ef" d="M 238.8125 147.070312 L 238.8125 131.921875 L 233.492188 131.921875 L 233.492188 144.40625 L 221.007812 144.40625 L 221.007812 149.726562 L 236.152344 149.726562 C 237.621094 149.726562 238.8125 148.535156 238.8125 147.070312 " fill-opacity="1" fill-rule="nonzero"/><path fill="#4b73ef" d="M 146.035156 147.070312 C 146.035156 148.535156 147.230469 149.726562 148.695312 149.726562 L 163.839844 149.726562 L 163.839844 144.40625 L 151.355469 144.40625 L 151.355469 131.921875 L 146.035156 131.921875 L 146.035156 147.070312 " fill-opacity="1" fill-rule="nonzero"/><path fill="#4b73ef" d="M 238.8125 59.609375 C 238.8125 58.144531 237.621094 56.949219 236.152344 56.949219 L 221.007812 56.949219 L 221.007812 62.269531 L 233.492188 62.269531 L 233.492188 74.753906 L 238.8125 74.753906 L 238.8125 59.609375 " fill-opacity="1" fill-rule="nonzero"/><path fill="#4b73ef" d="M 146.035156 59.609375 L 146.035156 74.753906 L 151.355469 74.753906 L 151.355469 62.269531 L 163.839844 62.269531 L 163.839844 56.949219 L 148.695312 56.949219 C 147.230469 56.949219 146.035156 58.144531 146.035156 59.609375 " fill-opacity="1" fill-rule="nonzero"/><path fill="#4b73ef" d="M 206.375 72.609375 L 222.3125 72.609375 L 222.3125 88.550781 L 206.375 88.550781 Z M 201.054688 93.867188 L 227.632812 93.867188 L 227.632812 67.292969 L 201.054688 67.292969 L 201.054688 93.867188 " fill-opacity="1" fill-rule="nonzero"/><path fill="#4b73ef" d="M 162.464844 72.539062 L 178.542969 72.539062 L 178.542969 88.621094 L 162.464844 88.621094 Z M 157.292969 93.800781 L 183.722656 93.800781 L 183.722656 67.367188 L 157.292969 67.367188 L 157.292969 93.800781 " fill-opacity="1" fill-rule="nonzero"/><path fill="#4b73ef" d="M 178.542969 134.117188 L 162.464844 134.117188 L 162.464844 118.035156 L 178.542969 118.035156 Z M 183.722656 112.859375 L 157.292969 112.859375 L 157.292969 139.289062 L 183.722656 139.289062 L 183.722656 112.859375 " fill-opacity="1" fill-rule="nonzero"/><path fill="#4b73ef" d="M 195.015625 67.121094 L 189.832031 67.121094 L 189.832031 77.953125 L 195.015625 77.953125 L 195.015625 67.121094 " fill-opacity="1" fill-rule="nonzero"/><path fill="#4b73ef" d="M 189.832031 139.554688 L 195.015625 139.554688 L 195.015625 129.007812 L 189.832031 129.007812 L 189.832031 139.554688 " fill-opacity="1" fill-rule="nonzero"/><path fill="#4b73ef" d="M 156.210938 105.929688 L 167.574219 105.929688 L 167.574219 100.75 L 156.210938 100.75 L 156.210938 105.929688 " fill-opacity="1" fill-rule="nonzero"/><path fill="#4b73ef" d="M 189.832031 100.75 L 173.441406 100.75 L 173.441406 105.929688 L 189.832031 105.929688 L 189.832031 123.140625 L 195.015625 123.140625 L 195.015625 105.929688 L 211.40625 105.929688 L 211.40625 100.75 L 195.015625 100.75 L 195.015625 83.816406 L 189.832031 83.816406 L 189.832031 100.75 " fill-opacity="1" fill-rule="nonzero"/><path fill="#4b73ef" d="M 228.636719 100.75 L 217.273438 100.75 L 217.273438 105.929688 L 228.636719 105.929688 L 228.636719 100.75 " fill-opacity="1" fill-rule="nonzero"/><path fill="#4b73ef" d="M 214.195312 112.6875 L 201.03125 112.6875 L 201.03125 125.851562 L 207.476562 125.851562 L 207.476562 119.132812 L 214.195312 119.132812 L 214.195312 112.6875 " fill-opacity="1" fill-rule="nonzero"/><path fill="#4b73ef" d="M 227.632812 119.132812 L 227.632812 112.6875 L 221.1875 112.6875 L 221.1875 119.132812 L 227.632812 119.132812 " fill-opacity="1" fill-rule="nonzero"/><path fill="#4b73ef" d="M 214.46875 125.851562 L 220.914062 125.851562 L 220.914062 119.40625 L 214.46875 119.40625 L 214.46875 125.851562 " fill-opacity="1" fill-rule="nonzero"/><path fill="#4b73ef" d="M 214.195312 132.570312 L 214.195312 126.125 L 207.75 126.125 L 207.75 132.570312 L 214.195312 132.570312 " fill-opacity="1" fill-rule="nonzero"/><path fill="#4b73ef" d="M 201.03125 139.289062 L 207.476562 139.289062 L 207.476562 132.84375 L 201.03125 132.84375 L 201.03125 139.289062 " fill-opacity="1" fill-rule="nonzero"/><path fill="#4b73ef" d="M 227.632812 126.125 L 221.1875 126.125 L 221.1875 132.84375 L 214.46875 132.84375 L 214.46875 139.289062 L 227.632812 139.289062 L 227.632812 126.125 " fill-opacity="1" fill-rule="nonzero"/><path fill="#4b73ef" d="M 189.371094 214.769531 C 189.398438 214.773438 189.425781 214.777344 189.453125 214.777344 C 190.476562 214.917969 191.488281 214.984375 192.542969 214.984375 C 193.503906 214.984375 194.460938 214.925781 195.378906 214.808594 C 206.917969 213.398438 215.625 203.550781 215.625 191.90625 C 215.625 191.449219 215.609375 191 215.582031 190.550781 C 215.492188 189.042969 214.191406 187.878906 212.691406 187.980469 C 211.183594 188.074219 210.035156 189.367188 210.121094 190.875 C 210.144531 191.214844 210.15625 191.558594 210.15625 191.90625 C 210.15625 200.792969 203.519531 208.304688 194.695312 209.382812 C 193.191406 209.578125 191.628906 209.5625 190.132812 209.355469 C 190.105469 209.351562 190.078125 209.347656 190.050781 209.34375 C 181.417969 208.121094 174.917969 200.636719 174.917969 191.90625 C 174.917969 182.1875 182.824219 174.285156 192.542969 174.285156 C 194.15625 174.285156 195.761719 174.507812 197.304688 174.945312 C 198.753906 175.359375 200.269531 174.519531 200.683594 173.066406 C 201.097656 171.613281 200.253906 170.101562 198.800781 169.691406 C 196.765625 169.113281 194.664062 168.816406 192.542969 168.816406 C 179.8125 168.816406 169.453125 179.175781 169.453125 191.90625 C 169.453125 203.378906 178.015625 213.203125 189.371094 214.769531 " fill-opacity="1" fill-rule="nonzero"/><path fill="#4b73ef" d="M 215.144531 169.300781 C 213.960938 168.371094 212.246094 168.582031 211.308594 169.765625 L 192.34375 193.9375 L 187.003906 187.253906 C 186.0625 186.074219 184.34375 185.882812 183.164062 186.820312 C 181.984375 187.761719 181.789062 189.484375 182.730469 190.664062 L 190.226562 200.046875 C 190.746094 200.695312 191.53125 201.074219 192.363281 201.074219 C 192.367188 201.074219 192.371094 201.074219 192.375 201.074219 C 193.210938 201.074219 193.996094 200.6875 194.511719 200.03125 L 215.609375 173.140625 C 216.542969 171.953125 216.335938 170.234375 215.144531 169.300781 " fill-opacity="1" fill-rule="nonzero"/><path fill="#4b73ef" d="M 157.261719 254.253906 C 156.140625 235.328125 149.382812 221.09375 136.628906 214.457031 C 131.253906 211.640625 128.136719 205.941406 128.714844 199.96875 L 131.773438 169.003906 C 132.953125 160.25 128.296875 147.539062 120.300781 143.5 C 119.082031 142.878906 117.84375 142.5 116.625 142.339844 C 116.40625 142.300781 116.164062 142.28125 115.902344 142.28125 C 113.265625 142.28125 111.007812 144.257812 110.644531 146.898438 L 100.972656 220.617188 C 100.929688 220.933594 97.195312 241.703125 102.691406 258.253906 C 104.570312 263.910156 106.667969 267.167969 108.507812 270.046875 C 111.585938 274.84375 114.023438 278.679688 113.503906 289.398438 L 197.554688 317.121094 C 199.695312 304.847656 207.011719 298.550781 214.707031 291.894531 C 219.304688 287.9375 224.0625 283.820312 228.140625 278.140625 C 232.515625 272.023438 235.433594 265.109375 237.113281 259.253906 L 157.160156 259.253906 L 157.261719 254.253906 " fill-opacity="1" fill-rule="nonzero"/><g clip-path="url(#c044e36abe)"><path fill="#4b73ef" d="M 125.957031 142.578125 L 125.957031 40.136719 C 125.957031 34.125 130.875 29.222656 136.890625 29.222656 L 248.207031 29.222656 C 254.222656 29.222656 259.140625 34.125 259.140625 40.136719 L 259.140625 92.167969 L 260.558594 91.050781 L 264.597656 87.890625 L 264.597656 40.136719 C 264.597656 31.105469 257.242188 23.75 248.207031 23.75 L 136.890625 23.75 C 127.859375 23.75 120.5 31.105469 120.5 40.136719 L 120.5 139.28125 C 121.039062 139.480469 121.578125 139.660156 122.121094 139.941406 C 123.5 140.640625 124.777344 141.539062 125.957031 142.578125 " fill-opacity="1" fill-rule="nonzero"/></g><g clip-path="url(#9fae67c052)"><path fill="#4b73ef" d="M 253.425781 101.839844 C 248.1875 106.015625 247.324219 113.667969 251.5 118.902344 C 255.675781 124.140625 263.324219 125.003906 268.566406 120.832031 L 277.855469 113.425781 C 283.089844 109.253906 283.957031 101.597656 279.78125 96.359375 C 277.386719 93.355469 273.84375 91.792969 270.273438 91.792969 C 267.617188 91.792969 264.949219 92.65625 262.714844 94.433594 L 253.425781 101.839844 " fill-opacity="1" fill-rule="nonzero"/></g><path fill="#4b73ef" d="M 259.140625 238.625 C 259.140625 244.644531 254.222656 249.558594 248.207031 249.558594 L 161.855469 249.558594 C 161.816406 249.558594 161.777344 249.558594 161.738281 249.578125 L 162.058594 255.015625 L 248.207031 255.015625 C 257.242188 255.015625 264.597656 247.660156 264.597656 238.625 L 264.597656 230.007812 L 259.140625 230.007812 L 259.140625 238.625 " fill-opacity="1" fill-rule="nonzero"/><g clip-path="url(#7f1c28b4e4)"><path fill="#4b73ef" d="M 271.648438 194.25 C 271.183594 194.199219 270.722656 194.175781 270.261719 194.175781 C 267.527344 194.175781 264.886719 195.09375 262.714844 196.820312 L 253.425781 204.226562 C 248.1875 208.402344 247.324219 216.054688 251.5 221.292969 C 255.675781 226.527344 263.324219 227.390625 268.566406 223.21875 L 277.855469 215.8125 C 283.089844 211.640625 283.957031 203.984375 279.78125 198.75 C 277.757812 196.214844 274.871094 194.613281 271.648438 194.25 " fill-opacity="1" fill-rule="nonzero"/></g></svg>