<?xml version="1.0" encoding="UTF-8"?>
<svg id="Layer_2" data-name="Layer 2" xmlns="http://www.w3.org/2000/svg" viewBox="0 0 3752.95 901.8">
  <defs>
    <style>
      .cls-1 {
        fill: #4e78ff;
      }

      .cls-1, .cls-2, .cls-3 {
        stroke-width: 0px;
      }

      .cls-2 {
        fill: #144dff;
      }

      .cls-3 {
        fill: #1d2230;
      }
    </style>
  </defs>
  <g id="Layer_1-2" data-name="Layer 1">
    <g>
      <g>
        <path class="cls-2" d="M319.9,397.26c109.41,0,198.11-88.93,198.11-198.63S429.32,0,319.9,0,121.79,88.93,121.79,198.63s88.7,198.63,198.11,198.63Z"/>
        <path class="cls-1" d="M799.71,397.26c78.85,0,142.77-64.09,142.77-143.15s-63.92-143.15-142.77-143.15-142.77,64.09-142.77,143.15,63.92,143.15,142.77,143.15Z"/>
        <path class="cls-1" d="M1037.1,830.78c0,14.73-2.23,42.74-3.69,58.85-.62,6.9-6.4,12.17-13.33,12.17h-246c-6.95,0-12.58-5.63-12.58-12.58v-67.88c-1.1-38.28-6.64-73.79-14.94-106.53-8.3-32.73-18.81-62.14-30.43-88.21-9.41-20.53-18.82-38.84-28.78-54.93-9.96-16.09-19.37-30.52-27.67-42.17-3.32-4.44-3.32-9.43-1.66-13.87,1.66-4.44,5.53-7.77,11.07-8.88,22.69-3.88,45.38-5.55,68.07-4.44,22.68,1.11,45.37,5,67.51,11.1,26.01,7.21,50.91,17.75,74.7,32.18,23.8,14.43,45.93,31.63,66.41,52.71,15.49,16.09,28.78,33.29,40.4,51.6s21.03,37.73,28.78,57.15c7.74,19.97,13.28,40.5,17.15,61.03,3.32,20.53,4.98,41.61,4.98,62.7Z"/>
        <path class="cls-2" d="M640.32,824.67v64.99c0,6.7-5.44,12.14-12.14,12.14H16.37c-6.22,0-11.45-4.61-12.3-10.77-14.61-105.72,9.57-216.66,82.31-299.39,63.64-72.68,147.2-109.3,230.21-109.3s159.37,20.53,223.01,93.21c0,0,95.74,95.99,100.72,249.12Z"/>
      </g>
      <g>
        <path class="cls-3" d="M1565.47,445.91v106.09c-121.59-8.16-156.69,35.09-156.69,144.44v186.88h-104.46v-430.89h104.46v23.67c0,18.77-4.9,35.09-12.24,49.78-3.26,7.34-5.71,17.14,4.08,18.77,4.9.82,8.98-5.71,9.79-8.16,26.11-59.57,49.78-90.58,155.05-90.58Z"/>
        <path class="cls-3" d="M1977.01,693.99h-313.37c7.34,65.29,49.78,104.46,115.07,104.46,49.78,0,75.08-26.93,87.32-65.29h106.09c-18.77,88.95-79.16,156.69-194.22,156.69-139.55,0-216.26-93.85-216.26-221.97,0-134.65,83.24-221.97,214.63-221.97,99.56,0,203.2,59.57,203.2,216.26,0,11.42-.82,19.59-2.45,31.83ZM1875.01,622.18c-4.08-52.23-35.09-91.4-95.48-91.4-71,0-101.19,39.99-111.8,91.4h207.28Z"/>
        <path class="cls-3" d="M2003.54,707.05v-254.61h104.46v218.71c0,97.11,25.3,124.04,79.98,124.04,60.39,0,115.88-67.73,115.88-167.29v-175.46h104.46v430.89h-104.46v-26.93c0-26.11,5.71-41.62,13.06-58.76,3.26-7.34,8.16-18.77-2.45-21.22-6.53-1.63-8.98,3.26-12.24,9.79-21.22,42.44-68.55,103.64-143.63,103.64-93.03,0-155.05-60.39-155.05-182.8Z"/>
        <path class="cls-3" d="M2851.31,628.71v254.61h-104.46v-218.71c0-97.11-25.3-124.04-79.97-124.04-60.39,0-115.88,67.73-115.88,167.29v175.46h-104.46v-430.89h104.46v26.93c0,26.11-4.9,41.62-13.06,58.76-3.26,7.34-8.16,18.77,2.45,21.22,6.53,1.63,8.98-3.26,12.24-9.79,19.59-43.25,68.55-103.64,143.63-103.64,93.03,0,155.05,60.39,155.05,182.8Z"/>
        <path class="cls-3" d="M3296.76,693.99h-313.37c7.34,65.29,49.78,104.46,115.07,104.46,49.78,0,75.08-26.93,87.32-65.29h106.09c-18.77,88.95-79.16,156.69-194.22,156.69-139.55,0-216.26-93.85-216.26-221.97,0-134.65,83.24-221.97,214.63-221.97,99.56,0,203.2,59.57,203.2,216.26,0,11.42-.82,19.59-2.45,31.83ZM3194.75,622.18c-4.08-52.23-35.09-91.4-95.48-91.4-71,0-101.19,39.99-111.8,91.4h207.28Z"/>
        <path class="cls-3" d="M3752.95,667.88c0,122.41-80.79,221.97-215.44,221.97s-215.44-99.56-215.44-221.97,80.79-221.97,215.44-221.97,215.44,99.56,215.44,221.97ZM3648.49,667.88c0-70.18-39.99-127.31-110.99-127.31s-110.99,57.12-110.99,127.31,39.99,127.31,110.99,127.31,110.99-57.12,110.99-127.31Z"/>
      </g>
    </g>
  </g>
</svg>