<svg xmlns="http://www.w3.org/2000/svg" xmlns:xlink="http://www.w3.org/1999/xlink" width="1080" zoomAndPan="magnify" viewBox="0 0 810 1439.999935" height="1920" preserveAspectRatio="xMidYMid meet" version="1.0"><defs><g/><clipPath id="12b5ea55c7"><path d="M 116.546875 552.15625 L 693.589844 552.15625 L 693.589844 690.734375 L 116.546875 690.734375 Z M 116.546875 552.15625 " clip-rule="nonzero"/></clipPath><clipPath id="65a14d9578"><path d="M 155.546875 552.15625 L 654.453125 552.15625 C 664.796875 552.15625 674.714844 556.265625 682.03125 563.578125 C 689.34375 570.894531 693.453125 580.8125 693.453125 591.15625 L 693.453125 651.734375 C 693.453125 662.078125 689.34375 671.996094 682.03125 679.308594 C 674.714844 686.625 664.796875 690.734375 654.453125 690.734375 L 155.546875 690.734375 C 145.203125 690.734375 135.285156 686.625 127.96875 679.308594 C 120.65625 671.996094 116.546875 662.078125 116.546875 651.734375 L 116.546875 591.15625 C 116.546875 580.8125 120.65625 570.894531 127.96875 563.578125 C 135.285156 556.265625 145.203125 552.15625 155.546875 552.15625 Z M 155.546875 552.15625 " clip-rule="nonzero"/></clipPath></defs><g clip-path="url(#12b5ea55c7)"><g clip-path="url(#65a14d9578)"><path fill="#144dff" d="M 116.546875 552.15625 L 693.589844 552.15625 L 693.589844 690.734375 L 116.546875 690.734375 Z M 116.546875 552.15625 " fill-opacity="1" fill-rule="nonzero"/></g></g><path stroke-linecap="butt" transform="matrix(1.752019, 0, 0, 1.752019, 223.89867, 582.900337)" fill="none" stroke-linejoin="miter" d="M 9.085365 11.218112 L 1.921757 11.218112 L 1.921757 33.999858 L 19.265582 33.999858 L 19.265582 28.07812 L 9.085365 28.07812 Z M 38.747564 26.414861 C 38.747564 21.710468 35.96729 16.914663 29.599638 16.914663 C 24.130503 16.914663 20.380367 20.430695 20.380367 25.772745 C 20.380367 31.117024 23.905317 34.639745 29.662066 34.639745 C 33.951759 34.639745 36.928235 32.717855 38.208008 29.554095 L 32.061084 29.172839 C 31.552742 29.843939 30.756785 30.156079 29.724494 30.156079 C 28.030021 30.156079 27.006649 29.297695 26.68559 27.344592 L 38.747564 27.344592 Z M 29.53721 21.39164 C 31.037711 21.39164 31.967442 22.125168 32.223842 23.859774 L 26.756937 23.859774 C 27.106979 22.125168 28.030021 21.39164 29.53721 21.39164 Z M 58.974223 33.999858 C 58.303122 32.851629 58.044492 31.375654 58.044492 29.843939 L 58.044492 22.867615 C 58.044492 18.577922 55.074705 16.914663 49.763869 16.914663 C 44.029415 16.914663 41.795386 18.89898 41.340554 22.671413 L 47.489708 22.898829 C 47.58335 21.554398 48.192023 21.101796 49.505239 21.101796 C 51.00574 21.101796 51.583199 21.679254 51.583199 22.577771 L 51.583199 23.757213 L 45.795235 24.65573 C 41.857814 25.266632 40.607025 27.117175 40.607025 29.554095 C 40.607025 32.811497 43.075159 34.639745 46.653619 34.639745 C 49.152967 34.639745 50.880884 33.772442 51.966685 32.046755 C 52.098229 32.914057 52.316727 33.484827 52.575357 33.999858 Z M 48.896567 30.577468 C 47.645778 30.577468 46.943463 30.093651 46.943463 29.132707 C 46.943463 28.274322 47.520922 27.788276 48.990209 27.538564 L 51.810615 27.023533 L 51.810615 27.757062 C 51.810615 29.875153 50.363624 30.577468 48.896567 30.577468 Z M 70.338341 21.875456 L 68.89358 27.725848 L 67.424293 21.875456 L 66.082092 17.485433 L 59.293052 17.485433 L 65.121148 33.999858 L 72.5746 33.999858 L 78.112852 17.485433 L 71.682772 17.485433 Z M 97.276006 26.414861 C 97.276006 21.710468 94.495732 16.914663 88.12808 16.914663 C 82.658945 16.914663 78.908808 20.430695 78.908808 25.772745 C 78.908808 31.117024 82.431529 34.639745 88.190508 34.639745 C 92.480201 34.639745 95.456677 32.717855 96.73645 29.554095 L 90.589526 29.172839 C 90.081184 29.843939 89.282998 30.156079 88.252936 30.156079 C 86.558463 30.156079 85.53509 29.297695 85.214032 27.344592 L 97.276006 27.344592 Z M 88.065652 21.39164 C 89.566153 21.39164 90.495884 22.125168 90.752284 23.859774 L 85.283149 23.859774 C 85.635421 22.125168 86.558463 21.39164 88.065652 21.39164 Z M 115.549562 11.218112 L 108.385953 11.218112 L 108.385953 33.999858 L 125.729778 33.999858 L 125.729778 28.07812 L 115.549562 28.07812 Z M 136.126263 34.639745 C 141.726943 34.639745 145.407963 31.117024 145.407963 25.772745 C 145.407963 20.430695 141.726943 16.914663 136.126263 16.914663 C 130.525583 16.914663 126.844563 20.430695 126.844563 25.772745 C 126.844563 31.117024 130.525583 34.639745 136.126263 34.639745 Z M 136.126263 30.156079 C 134.338148 30.156079 133.439631 28.882995 133.439631 25.772745 C 133.439631 22.671413 134.338148 21.39164 136.126263 21.39164 C 137.923296 21.39164 138.812895 22.671413 138.812895 25.772745 C 138.812895 28.882995 137.923296 30.156079 136.126263 30.156079 Z M 159.106441 16.914663 C 157.278193 16.914663 155.614934 17.616978 154.270504 18.961408 L 154.270504 11.218112 L 147.80921 11.218112 L 147.80921 33.999858 L 153.82459 33.999858 L 154.011873 32.242957 C 155.16902 33.803656 156.863493 34.639745 158.974896 34.639745 C 163.262359 34.639745 166.082765 31.282012 166.082765 25.741531 C 166.082765 19.953567 163.005959 16.914663 159.106441 16.914663 Z M 156.990579 29.391337 C 155.262662 29.391337 154.208076 27.92205 154.208076 25.647889 C 154.208076 23.407171 155.262662 21.875456 156.990579 21.875456 C 158.466554 21.875456 159.489927 22.992471 159.489927 25.647889 C 159.489927 28.305536 158.466554 29.391337 156.990579 29.391337 Z M 179.779014 16.914663 C 177.950766 16.914663 176.287507 17.616978 174.943076 18.961408 L 174.943076 11.218112 L 168.481783 11.218112 L 168.481783 33.999858 L 174.497163 33.999858 L 174.684446 32.242957 C 175.841593 33.803656 177.536066 34.639745 179.64524 34.639745 C 183.934932 34.639745 186.755338 31.282012 186.755338 25.741531 C 186.755338 19.953567 183.676302 16.914663 179.779014 16.914663 Z M 177.660922 29.391337 C 175.935235 29.391337 174.880649 27.92205 174.880649 25.647889 C 174.880649 23.407171 175.935235 21.875456 177.660922 21.875456 C 179.139127 21.875456 180.1625 22.992471 180.1625 25.647889 C 180.1625 28.305536 179.139127 29.391337 177.660922 29.391337 Z M 197.985682 24.109485 C 197.729282 25.101644 197.439438 26.258791 197.212022 27.438233 C 196.96231 26.258791 196.705909 25.101644 196.416065 24.109485 L 194.431748 17.485433 L 187.549065 17.485433 L 194.204332 33.906216 L 194.048262 34.320916 C 193.760647 35.116872 193.252305 35.437931 192.220014 35.437931 L 189.954771 35.437931 L 189.954771 40.530268 L 193.729433 40.530268 C 197.149594 40.530268 198.946627 39.312923 200.001214 36.305233 L 206.556149 17.485433 L 199.807241 17.485433 Z M 197.985682 24.109485 " stroke="#3b3b3b" stroke-width="1.160015" stroke-opacity="1" stroke-miterlimit="4"/><g fill="#ffffff" fill-opacity="1"><g transform="translate(223.89867, 642.468999)"><g><path d="M 15.921875 -39.921875 L 3.359375 -39.921875 L 3.359375 0 L 33.75 0 L 33.75 -10.375 L 15.921875 -10.375 Z M 15.921875 -39.921875 "/></g></g></g><g fill="#ffffff" fill-opacity="1"><g transform="translate(258.210298, 642.468999)"><g><path d="M 33.578125 -13.28125 C 33.578125 -21.53125 28.703125 -29.9375 17.546875 -29.9375 C 7.953125 -29.9375 1.40625 -23.765625 1.40625 -14.40625 C 1.40625 -5.046875 7.5625 1.125 17.65625 1.125 C 25.171875 1.125 30.390625 -2.25 32.625 -7.796875 L 21.859375 -8.46875 C 20.96875 -7.28125 19.5625 -6.734375 17.765625 -6.734375 C 14.796875 -6.734375 13 -8.234375 12.453125 -11.65625 L 33.578125 -11.65625 Z M 17.4375 -22.09375 C 20.078125 -22.09375 21.703125 -20.796875 22.140625 -17.765625 L 12.5625 -17.765625 C 13.171875 -20.796875 14.796875 -22.09375 17.4375 -22.09375 Z M 17.4375 -22.09375 "/></g></g></g><g fill="#ffffff" fill-opacity="1"><g transform="translate(293.194707, 642.468999)"><g><path d="M 34.03125 0 C 32.859375 -2.015625 32.40625 -4.59375 32.40625 -7.28125 L 32.40625 -19.515625 C 32.40625 -27.015625 27.1875 -29.9375 17.890625 -29.9375 C 7.84375 -29.9375 3.921875 -26.46875 3.140625 -19.84375 L 13.90625 -19.453125 C 14.078125 -21.8125 15.140625 -22.59375 17.4375 -22.59375 C 20.078125 -22.59375 21.078125 -21.578125 21.078125 -20.015625 L 21.078125 -17.9375 L 10.9375 -16.375 C 4.03125 -15.3125 1.84375 -12.046875 1.84375 -7.796875 C 1.84375 -2.078125 6.171875 1.125 12.453125 1.125 C 16.8125 1.125 19.84375 -0.390625 21.75 -3.421875 C 21.96875 -1.90625 22.375 -0.890625 22.8125 0 Z M 16.375 -6 C 14.1875 -6 12.953125 -6.84375 12.953125 -8.515625 C 12.953125 -10.03125 13.953125 -10.875 16.53125 -11.328125 L 21.46875 -12.21875 L 21.46875 -10.9375 C 21.46875 -7.234375 18.953125 -6 16.375 -6 Z M 16.375 -6 "/></g></g></g><g fill="#ffffff" fill-opacity="1"><g transform="translate(327.506308, 642.468999)"><g><path d="M 19.625 -21.25 L 17.09375 -10.984375 L 14.515625 -21.25 L 12.171875 -28.921875 L 0.28125 -28.921875 L 10.484375 0 L 23.546875 0 L 33.25 -28.921875 L 21.96875 -28.921875 Z M 19.625 -21.25 "/></g></g></g><g fill="#ffffff" fill-opacity="1"><g transform="translate(360.752678, 642.468999)"><g><path d="M 33.578125 -13.28125 C 33.578125 -21.53125 28.703125 -29.9375 17.546875 -29.9375 C 7.953125 -29.9375 1.40625 -23.765625 1.40625 -14.40625 C 1.40625 -5.046875 7.5625 1.125 17.65625 1.125 C 25.171875 1.125 30.390625 -2.25 32.625 -7.796875 L 21.859375 -8.46875 C 20.96875 -7.28125 19.5625 -6.734375 17.765625 -6.734375 C 14.796875 -6.734375 13 -8.234375 12.453125 -11.65625 L 33.578125 -11.65625 Z M 17.4375 -22.09375 C 20.078125 -22.09375 21.703125 -20.796875 22.140625 -17.765625 L 12.5625 -17.765625 C 13.171875 -20.796875 14.796875 -22.09375 17.4375 -22.09375 Z M 17.4375 -22.09375 "/></g></g></g><g fill="#ffffff" fill-opacity="1"><g transform="translate(395.737087, 642.468999)"><g/></g></g><g fill="#ffffff" fill-opacity="1"><g transform="translate(410.426049, 642.468999)"><g><path d="M 15.921875 -39.921875 L 3.359375 -39.921875 L 3.359375 0 L 33.75 0 L 33.75 -10.375 L 15.921875 -10.375 Z M 15.921875 -39.921875 "/></g></g></g><g fill="#ffffff" fill-opacity="1"><g transform="translate(444.737677, 642.468999)"><g><path d="M 17.65625 1.125 C 27.46875 1.125 33.921875 -5.046875 33.921875 -14.40625 C 33.921875 -23.765625 27.46875 -29.9375 17.65625 -29.9375 C 7.84375 -29.9375 1.40625 -23.765625 1.40625 -14.40625 C 1.40625 -5.046875 7.84375 1.125 17.65625 1.125 Z M 17.65625 -6.734375 C 14.515625 -6.734375 12.953125 -8.96875 12.953125 -14.40625 C 12.953125 -19.84375 14.515625 -22.09375 17.65625 -22.09375 C 20.796875 -22.09375 22.375 -19.84375 22.375 -14.40625 C 22.375 -8.96875 20.796875 -6.734375 17.65625 -6.734375 Z M 17.65625 -6.734375 "/></g></g></g><g fill="#ffffff" fill-opacity="1"><g transform="translate(480.058449, 642.468999)"><g><path d="M 22.59375 -29.9375 C 19.390625 -29.9375 16.484375 -28.703125 14.125 -26.34375 L 14.125 -39.921875 L 2.796875 -39.921875 L 2.796875 0 L 13.34375 0 L 13.671875 -3.078125 C 15.703125 -0.34375 18.671875 1.125 22.375 1.125 C 29.875 1.125 34.8125 -4.765625 34.8125 -14.46875 C 34.8125 -24.609375 29.4375 -29.9375 22.59375 -29.9375 Z M 18.890625 -8.078125 C 15.859375 -8.078125 14.015625 -10.65625 14.015625 -14.625 C 14.015625 -18.5625 15.859375 -21.25 18.890625 -21.25 C 21.46875 -21.25 23.265625 -19.28125 23.265625 -14.625 C 23.265625 -9.984375 21.46875 -8.078125 18.890625 -8.078125 Z M 18.890625 -8.078125 "/></g></g></g><g fill="#ffffff" fill-opacity="1"><g transform="translate(516.276271, 642.468999)"><g><path d="M 22.59375 -29.9375 C 19.390625 -29.9375 16.484375 -28.703125 14.125 -26.34375 L 14.125 -39.921875 L 2.796875 -39.921875 L 2.796875 0 L 13.34375 0 L 13.671875 -3.078125 C 15.703125 -0.34375 18.671875 1.125 22.375 1.125 C 29.875 1.125 34.8125 -4.765625 34.8125 -14.46875 C 34.8125 -24.609375 29.4375 -29.9375 22.59375 -29.9375 Z M 18.890625 -8.078125 C 15.859375 -8.078125 14.015625 -10.65625 14.015625 -14.625 C 14.015625 -18.5625 15.859375 -21.25 18.890625 -21.25 C 21.46875 -21.25 23.265625 -19.28125 23.265625 -14.625 C 23.265625 -9.984375 21.46875 -8.078125 18.890625 -8.078125 Z M 18.890625 -8.078125 "/></g></g></g><g fill="#ffffff" fill-opacity="1"><g transform="translate(552.213762, 642.468999)"><g><path d="M 18.5625 -17.328125 C 18.109375 -15.578125 17.609375 -13.5625 17.21875 -11.5 C 16.765625 -13.5625 16.3125 -15.578125 15.8125 -17.328125 L 12.328125 -28.921875 L 0.28125 -28.921875 L 11.9375 -0.171875 L 11.65625 0.5625 C 11.15625 1.96875 10.265625 2.515625 8.46875 2.515625 L 4.484375 2.515625 L 4.484375 11.4375 L 11.09375 11.4375 C 17.09375 11.4375 20.234375 9.3125 22.09375 4.03125 L 33.578125 -28.921875 L 21.75 -28.921875 Z M 18.5625 -17.328125 "/></g></g></g></svg>